<svg version="1.1" id="Layer_1" xmlns="http://www.w3.org/2000/svg" xmlns:xlink="http://www.w3.org/1999/xlink" viewBox="0 0 506.8 506.8" xml:space="preserve" fill="#000000">
  <g id="SVGRepo_bgCarrier" stroke-width="0"></g>
  <g id="SVGRepo_tracerCarrier" stroke-linecap="round" stroke-linejoin="round"></g>
  <g id="SVGRepo_iconCarrier">
    <rect x="180" y="225.6" style="fill:#73BADD;" width="80" height="260"></rect>
    <rect x="180" y="281.6" style="fill:#DF5C4E;" width="80" height="204"></rect>
    <rect x="72" y="337.6" style="fill:#73BADD;" width="76" height="148"></rect>
    <rect x="72" y="401.6" style="fill:#DF5C4E;" width="76" height="84"></rect>
    <rect x="404" y="17.6" style="fill:#73BADD;" width="76" height="468"></rect>
    <rect x="404" y="117.6" style="fill:#DF5C4E;" width="76" height="368"></rect>
    <rect x="292" y="93.6" style="fill:#73BADD;" width="80" height="392"></rect>
    <rect x="292" y="249.6" style="fill:#DF5C4E;" width="80" height="236"></rect>
    <path d="M502.8,493.2L502.8,493.2L30,492.4c-2.4,0-4-1.6-4-4V17.6c0-2.4,1.6-4,4-4s4,1.6,4,4v466.8l468.8,0.8c2.4,0,4,2,4,4 S504.8,493.2,502.8,493.2z"></path>
    <path d="M28,491.6H4c-2.4,0-4-1.6-4-4s1.6-4,4-4h24c2.4,0,4,1.6,4,4S30.4,491.6,28,491.6z"></path>
    <path d="M28,447.6H4c-2.4,0-4-1.6-4-4s1.6-4,4-4h24c2.4,0,4,1.6,4,4S30.4,447.6,28,447.6z"></path>
    <path d="M28,407.6H4c-2.4,0-4-1.6-4-4s1.6-4,4-4h24c2.4,0,4,1.6,4,4S30.4,407.6,28,407.6z"></path>
    <path d="M28,363.6H4c-2.4,0-4-1.6-4-4s1.6-4,4-4h24c2.4,0,4,1.6,4,4S30.4,363.6,28,363.6z"></path>
    <path d="M28,319.6H4c-2.4,0-4-1.6-4-4s1.6-4,4-4h24c2.4,0,4,1.6,4,4S30.4,319.6,28,319.6z"></path>
    <path d="M28,275.6H4c-2.4,0-4-1.6-4-4s1.6-4,4-4h24c2.4,0,4,1.6,4,4S30.4,275.6,28,275.6z"></path>
    <path d="M28,231.6H4c-2.4,0-4-1.6-4-4s1.6-4,4-4h24c2.4,0,4,1.6,4,4S30.4,231.6,28,231.6z"></path>
    <path d="M28,187.6H4c-2.4,0-4-1.6-4-4s1.6-4,4-4h24c2.4,0,4,1.6,4,4S30.4,187.6,28,187.6z"></path>
    <path d="M28,59.6H4c-2.4,0-4-1.6-4-4s1.6-4,4-4h24c2.4,0,4,1.6,4,4S30.4,59.6,28,59.6z"></path>
    <path d="M28,143.6H4c-2.4,0-4-1.6-4-4s1.6-4,4-4h24c2.4,0,4,1.6,4,4S30.4,143.6,28,143.6z"></path>
    <path d="M28,99.6H4c-2.4,0-4-1.6-4-4s1.6-4,4-4h24c2.4,0,4,1.6,4,4S30.4,99.6,28,99.6z"></path>
    <path d="M258,491.6h-80c-2.4,0-4-1.6-4-4v-260c0-2.4,1.6-4,4-4h80c2.4,0,4,1.6,4,4v260C262,490,260.4,491.6,258,491.6z M182,483.6 h72v-252h-72V483.6z"></path>
    <path d="M146,491.6H70c-2.4,0-4-1.6-4-4v-148c0-2.4,1.6-4,4-4h76c2.4,0,4,1.6,4,4v148C150,490,148.4,491.6,146,491.6z M74,483.6h68 v-140H74V483.6z"></path>
    <path d="M478,491.6h-76c-2.4,0-4-1.6-4-4v-468c0-2.4,1.6-4,4-4h76c2.4,0,4,1.6,4,4v468C482,490,480.4,491.6,478,491.6z M406,483.6 h68v-460h-68V483.6z"></path>
    <path d="M370,491.6h-80c-2.4,0-4-1.6-4-4v-392c0-2.4,1.6-4,4-4h80c2.4,0,4,1.6,4,4v392C374,490,372.4,491.6,370,491.6z M294,483.6 h72v-384h-72V483.6z"></path>
    <path d="M144,407.6H72c-2.4,0-4-1.6-4-4s1.6-4,4-4h72c2.4,0,4,1.6,4,4S146.4,407.6,144,407.6z"></path>
    <path d="M256,287.6h-72c-2.4,0-4-1.6-4-4s1.6-4,4-4h72c2.4,0,4,1.6,4,4S258.4,287.6,256,287.6z"></path>
    <path d="M368,255.6h-76c-2.4,0-4-1.6-4-4s1.6-4,4-4h76c2.4,0,4,1.6,4,4S370.4,255.6,368,255.6z"></path>
    <path d="M476,123.6h-68c-2.4,0-4-1.6-4-4s1.6-4,4-4h68c2.4,0,4,1.6,4,4S478.4,123.6,476,123.6z"></path>
    <path d="M86,485.6c-2.4,0-4-1.6-4-4v-64c0-2.4,1.6-4,4-4s4,1.6,4,4v64C90,484,88.4,485.6,86,485.6z"></path>
    <path d="M194,489.6c-2.4,0-4-1.6-4-4v-188c0-2.4,1.6-4,4-4s4,1.6,4,4v188C198,488,196.4,489.6,194,489.6z"></path>
    <path d="M306,489.6c-2.4,0-4-1.6-4-4v-220c0-2.4,1.6-4,4-4s4,1.6,4,4v220C310,488,308.4,489.6,306,489.6z"></path>
    <path d="M418,489.6c-2.4,0-4-1.6-4-4v-352c0-2.4,1.6-4,4-4s4,1.6,4,4v352C422,488,420.4,489.6,418,489.6z"></path>
  </g>
</svg>